<svg width="32" height="25" viewBox="0 0 32 25" fill="none" xmlns="http://www.w3.org/2000/svg">
<path d="M4.75 12.3062C5.45312 13.0094 5.59375 14.0406 5.125 14.8844C5.07812 14.9781 5.03125 15.0719 4.98438 15.1656C4.84375 15.4 4.70312 15.5875 4.60938 15.8219C5.40625 15.5875 6.20312 15.3062 6.95312 14.9781C7.14062 14.8844 7.32812 14.7906 7.51562 14.6969C7.98438 14.4625 8.45312 14.4156 8.96875 14.5094C9.53125 14.6031 10.1406 14.65 10.75 14.65C15.25 14.65 18.25 11.65 18.25 8.64999C18.25 5.69687 15.25 2.64999 10.75 2.64999C6.20312 2.64999 3.25 5.69687 3.25 8.64999C3.25 9.96249 3.76562 11.2281 4.75 12.3062ZM20.5 8.64999C20.5 13.2437 16.0938 16.9 10.75 16.9C9.95312 16.9 9.25 16.8531 8.5 16.7125C8.3125 16.8062 8.07812 16.9469 7.84375 17.0406C6.15625 17.7906 4.14062 18.4 2.125 18.4C1.65625 18.4 1.23438 18.1656 1.09375 17.7437C0.90625 17.3219 1 16.8531 1.28125 16.525C1.9375 15.775 2.5 14.9312 3.01562 14.0875C3.0625 13.9937 3.10938 13.9469 3.15625 13.8531C1.79688 12.4469 1 10.6187 1 8.64999C1 4.10312 5.35938 0.399994 10.75 0.399994C16.0938 0.399994 20.5 4.10312 20.5 8.64999ZM12.4844 18.3062C13.2812 18.2125 14.0781 18.025 14.8281 17.7437C16.0938 19.4312 18.3438 20.65 21.25 20.65C21.8594 20.65 22.4219 20.6031 22.9844 20.5094C23.5 20.4156 24.0156 20.4625 24.4375 20.6969C24.625 20.7906 24.8125 20.8844 25.0469 20.9781C25.7969 21.3062 26.5938 21.6344 27.3906 21.8219C27.25 21.5875 27.1094 21.4 27.0156 21.1656C26.9688 21.1187 26.875 21.025 26.8281 20.9312C26.4062 20.0406 26.5469 19.0094 27.2031 18.3062C28.1875 17.2281 28.75 15.9625 28.75 14.65C28.75 11.8844 26.0781 9.02499 22 8.69687V8.64999C22 7.89999 21.8594 7.14999 21.6719 6.44687C26.875 6.63437 31 10.2437 31 14.65C31 16.6187 30.1562 18.4469 28.8438 19.8531C28.8906 19.9 28.9375 19.9937 28.9375 20.0875C29.4531 20.9312 30.0156 21.775 30.6719 22.525C31 22.8531 31.0469 23.3219 30.9062 23.7437C30.7188 24.1656 30.2969 24.4 29.875 24.4C27.8594 24.4 25.7969 23.7906 24.1094 23.0406C23.875 22.9 23.6406 22.8062 23.4531 22.7125C22.75 22.8531 22 22.9 21.25 22.9C17.4062 22.9 14.0781 21.025 12.4844 18.3062ZM7.89062 5.69687C8.17188 4.94687 8.875 4.47812 9.625 4.47812H11.5469C12.6719 4.47812 13.6094 5.36874 13.6094 6.54062C13.6094 7.24374 13.1875 7.94687 12.5781 8.27499L11.5 8.93124C11.5 9.35312 11.125 9.68124 10.75 9.68124C10.3281 9.68124 10 9.35312 10 8.93124V8.50937C10 8.22812 10.1406 7.99374 10.375 7.85312L11.8281 7.00937C12.0156 6.91562 12.1094 6.72812 12.1094 6.54062C12.1094 6.21249 11.875 5.97812 11.5469 5.97812H9.625C9.48438 5.97812 9.39062 6.07187 9.34375 6.16562L9.29688 6.21249C9.15625 6.58749 8.73438 6.82187 8.35938 6.68124C7.98438 6.54062 7.75 6.11874 7.89062 5.69687ZM9.67188 11.8375C9.625 11.4625 9.8125 11.0875 10.1875 10.9C10.5156 10.6656 10.9375 10.6656 11.2656 10.9C11.5938 11.0875 11.8281 11.4625 11.7812 11.8375C11.8281 12.2594 11.5938 12.6344 11.2656 12.8219C10.9375 13.0562 10.5156 13.0562 10.1875 12.8219C9.8125 12.6344 9.625 12.2594 9.67188 11.8375Z" fill="#97847D"/>
</svg>
